<svg width="171" height="103" viewBox="0 0 171 103" fill="none" xmlns="http://www.w3.org/2000/svg">
<path d="M15.0979 61.5538H0V73.0438H15.0979V61.5538Z" fill="#51CCF1"/>
<path d="M46.2783 29.9562H31.1804V83.3028H46.2783V29.9562Z" fill="#51CCF1"/>
<path d="M77.4585 0H62.3606V64.0159H77.4585V0Z" fill="#51CCF1"/>
<path d="M108.639 4.51392H93.5413V30.7769H108.639V4.51392Z" fill="#51CCF1"/>
<path d="M139.82 36.1116H124.722V93.1514H139.82V36.1116Z" fill="#51CCF1"/>
<path d="M171 21.749H155.902V52.5259H171V21.749Z" fill="#51CCF1"/>
<path d="M15.0979 73.0438H0V103H15.0979V73.0438Z" fill="#F5BF42"/>
<path d="M46.2783 83.3028H31.1804V103H46.2783V83.3028Z" fill="#F5BF42"/>
<path d="M77.4585 64.0159H62.3606V103H77.4585V64.0159Z" fill="#F5BF42"/>
<path d="M108.639 30.7769H93.5413V103H108.639V30.7769Z" fill="#F5BF42"/>
<path d="M139.82 93.1514H124.722V103H139.82V93.1514Z" fill="#F5BF42"/>
<path d="M171 52.5259H155.902V103H171V52.5259Z" fill="#F5BF42"/>
</svg>
