<svg width="170" height="113" viewBox="0 0 170 113" fill="none" xmlns="http://www.w3.org/2000/svg">
<path d="M85.5774 0C100.539 0 114.888 5.94331 125.468 16.5225C136.047 27.1018 141.991 41.4504 141.992 56.412L123.187 56.4128C123.187 46.4384 119.224 36.8727 112.171 29.8198C105.118 22.767 95.5518 18.8048 85.5774 18.8048V0Z" fill="#F5BF42"/>
<path d="M132.113 13.3022V12.5991L134.754 9.7085C135.064 9.36995 135.319 9.07568 135.52 8.82568C135.72 8.57308 135.869 8.3361 135.965 8.11475C136.064 7.89079 136.113 7.65641 136.113 7.41162C136.113 7.13037 136.046 6.88688 135.91 6.68115C135.777 6.47542 135.595 6.31657 135.363 6.20459C135.132 6.09261 134.871 6.03662 134.582 6.03662C134.275 6.03662 134.007 6.10042 133.777 6.22803C133.551 6.35303 133.375 6.52881 133.25 6.75537C133.128 6.98193 133.067 7.24756 133.067 7.55225H132.145C132.145 7.0835 132.253 6.67204 132.469 6.31787C132.685 5.9637 132.979 5.68766 133.352 5.48975C133.727 5.29183 134.147 5.19287 134.613 5.19287C135.082 5.19287 135.498 5.29183 135.86 5.48975C136.221 5.68766 136.505 5.95459 136.711 6.29053C136.917 6.62646 137.02 7.00016 137.02 7.41162C137.02 7.70589 136.966 7.99365 136.86 8.2749C136.755 8.55355 136.573 8.86475 136.313 9.2085C136.055 9.54964 135.697 9.96631 135.238 10.4585L133.442 12.3804V12.4429H137.16V13.3022H132.113ZM141.274 13.4116C140.815 13.4116 140.402 13.3205 140.035 13.1382C139.668 12.9559 139.374 12.7059 139.152 12.3882C138.931 12.0705 138.81 11.7085 138.789 11.3022H139.727C139.763 11.6642 139.927 11.9637 140.219 12.2007C140.513 12.4351 140.865 12.5522 141.274 12.5522C141.602 12.5522 141.893 12.4754 142.149 12.3218C142.406 12.1681 142.608 11.9572 142.754 11.689C142.902 11.4181 142.977 11.1121 142.977 10.771C142.977 10.422 142.9 10.1108 142.746 9.8374C142.595 9.56136 142.387 9.34391 142.121 9.18506C141.856 9.0262 141.552 8.94548 141.211 8.94287C140.966 8.94027 140.715 8.97803 140.457 9.05615C140.199 9.13167 139.987 9.22933 139.82 9.34912L138.914 9.23975L139.399 5.30225H143.555V6.16162H140.211L139.93 8.521H139.977C140.141 8.39079 140.346 8.28271 140.594 8.19678C140.841 8.11084 141.099 8.06787 141.367 8.06787C141.857 8.06787 142.293 8.18506 142.676 8.41943C143.061 8.6512 143.363 8.96891 143.582 9.37256C143.804 9.7762 143.914 10.2371 143.914 10.7554C143.914 11.2658 143.8 11.7215 143.57 12.1226C143.344 12.521 143.031 12.8361 142.633 13.0679C142.235 13.297 141.781 13.4116 141.274 13.4116ZM149.544 11.8022V11.3804C149.544 11.0887 149.604 10.8218 149.724 10.5796C149.846 10.3348 150.023 10.1395 150.255 9.99365C150.489 9.84521 150.773 9.771 151.107 9.771C151.445 9.771 151.729 9.84521 151.958 9.99365C152.187 10.1395 152.36 10.3348 152.478 10.5796C152.595 10.8218 152.653 11.0887 152.653 11.3804V11.8022C152.653 12.0939 152.594 12.3621 152.474 12.6069C152.357 12.8491 152.182 13.0444 151.95 13.1929C151.721 13.3387 151.44 13.4116 151.107 13.4116C150.768 13.4116 150.483 13.3387 150.251 13.1929C150.019 13.0444 149.844 12.8491 149.724 12.6069C149.604 12.3621 149.544 12.0939 149.544 11.8022ZM150.341 11.3804V11.8022C150.341 12.0444 150.398 12.2619 150.513 12.4546C150.627 12.6447 150.825 12.7397 151.107 12.7397C151.38 12.7397 151.573 12.6447 151.685 12.4546C151.799 12.2619 151.857 12.0444 151.857 11.8022V11.3804C151.857 11.1382 151.802 10.922 151.693 10.7319C151.583 10.5392 151.388 10.4429 151.107 10.4429C150.833 10.4429 150.637 10.5392 150.517 10.7319C150.4 10.922 150.341 11.1382 150.341 11.3804ZM145.56 7.22412V6.80225C145.56 6.51058 145.62 6.24365 145.739 6.00146C145.862 5.75667 146.039 5.56136 146.271 5.41553C146.505 5.26709 146.789 5.19287 147.122 5.19287C147.461 5.19287 147.745 5.26709 147.974 5.41553C148.203 5.56136 148.376 5.75667 148.493 6.00146C148.61 6.24365 148.669 6.51058 148.669 6.80225V7.22412C148.669 7.51579 148.609 7.78402 148.489 8.02881C148.372 8.271 148.198 8.46631 147.966 8.61475C147.737 8.76058 147.456 8.8335 147.122 8.8335C146.784 8.8335 146.499 8.76058 146.267 8.61475C146.035 8.46631 145.859 8.271 145.739 8.02881C145.62 7.78402 145.56 7.51579 145.56 7.22412ZM146.357 6.80225V7.22412C146.357 7.46631 146.414 7.68376 146.528 7.87646C146.643 8.06657 146.841 8.16162 147.122 8.16162C147.396 8.16162 147.588 8.06657 147.7 7.87646C147.815 7.68376 147.872 7.46631 147.872 7.22412V6.80225C147.872 6.56006 147.818 6.34391 147.708 6.15381C147.599 5.9611 147.403 5.86475 147.122 5.86475C146.849 5.86475 146.652 5.9611 146.532 6.15381C146.415 6.34391 146.357 6.56006 146.357 6.80225ZM145.857 13.3022L151.357 5.30225H152.247L146.747 13.3022H145.857Z" fill="#5C5C5C"/>
<path d="M142 56.4218C142.001 71.3834 136.058 85.7325 125.479 96.3127C114.9 106.893 100.552 112.837 85.5905 112.839L85.5889 94.0339C95.5633 94.033 105.129 90.07 112.181 83.0166C119.234 75.9631 123.196 66.397 123.195 56.4226L142 56.4218Z" fill="#51CCF1"/>
<path d="M85.5888 112.839C70.6272 112.84 56.2778 106.898 45.6972 96.3197C35.1166 85.7413 29.1714 71.3933 29.1694 56.4317L47.9742 56.4292C47.9755 66.4036 51.939 75.969 58.9927 83.0212C66.0465 90.0734 75.6127 94.0348 85.5871 94.0339L85.5888 112.839Z" fill="#25DE99"/>
<path d="M29 56.7241C28.998 41.7625 34.9395 27.4128 45.5173 16.8317C56.0952 6.25067 70.443 0.304857 85.4046 0.302246L85.4079 19.1071C75.4335 19.1088 65.8682 23.0727 58.8164 30.1267C51.7645 37.1808 47.8035 46.7472 47.8048 56.7216L29 56.7241Z" fill="#ED695D"/>
<path d="M133.113 102.302V101.599L135.754 98.7085C136.064 98.37 136.319 98.0757 136.52 97.8257C136.72 97.5731 136.869 97.3361 136.965 97.1147C137.064 96.8908 137.113 96.6564 137.113 96.4116C137.113 96.1304 137.046 95.8869 136.91 95.6812C136.777 95.4754 136.595 95.3166 136.363 95.2046C136.132 95.0926 135.871 95.0366 135.582 95.0366C135.275 95.0366 135.007 95.1004 134.777 95.228C134.551 95.353 134.375 95.5288 134.25 95.7554C134.128 95.9819 134.067 96.2476 134.067 96.5522H133.145C133.145 96.0835 133.253 95.672 133.469 95.3179C133.685 94.9637 133.979 94.6877 134.352 94.4897C134.727 94.2918 135.147 94.1929 135.613 94.1929C136.082 94.1929 136.498 94.2918 136.86 94.4897C137.221 94.6877 137.505 94.9546 137.711 95.2905C137.917 95.6265 138.02 96.0002 138.02 96.4116C138.02 96.7059 137.966 96.9937 137.86 97.2749C137.755 97.5535 137.573 97.8647 137.313 98.2085C137.055 98.5496 136.697 98.9663 136.238 99.4585L134.442 101.38V101.443H138.16V102.302H133.113ZM142.274 102.412C141.815 102.412 141.402 102.32 141.035 102.138C140.668 101.956 140.374 101.706 140.152 101.388C139.931 101.07 139.81 100.708 139.789 100.302H140.727C140.763 100.664 140.927 100.964 141.219 101.201C141.513 101.435 141.865 101.552 142.274 101.552C142.602 101.552 142.893 101.475 143.149 101.322C143.406 101.168 143.608 100.957 143.754 100.689C143.902 100.418 143.977 100.112 143.977 99.771C143.977 99.422 143.9 99.1108 143.746 98.8374C143.595 98.5614 143.387 98.3439 143.121 98.1851C142.856 98.0262 142.552 97.9455 142.211 97.9429C141.966 97.9403 141.715 97.978 141.457 98.0562C141.199 98.1317 140.987 98.2293 140.82 98.3491L139.914 98.2397L140.399 94.3022H144.555V95.1616H141.211L140.93 97.521H140.977C141.141 97.3908 141.346 97.2827 141.594 97.1968C141.841 97.1108 142.099 97.0679 142.367 97.0679C142.857 97.0679 143.293 97.1851 143.676 97.4194C144.061 97.6512 144.363 97.9689 144.582 98.3726C144.804 98.7762 144.914 99.2371 144.914 99.7554C144.914 100.266 144.8 100.722 144.57 101.123C144.344 101.521 144.031 101.836 143.633 102.068C143.235 102.297 142.781 102.412 142.274 102.412ZM150.544 100.802V100.38C150.544 100.089 150.604 99.8218 150.724 99.5796C150.846 99.3348 151.023 99.1395 151.255 98.9937C151.489 98.8452 151.773 98.771 152.107 98.771C152.445 98.771 152.729 98.8452 152.958 98.9937C153.187 99.1395 153.36 99.3348 153.478 99.5796C153.595 99.8218 153.653 100.089 153.653 100.38V100.802C153.653 101.094 153.594 101.362 153.474 101.607C153.357 101.849 153.182 102.044 152.95 102.193C152.721 102.339 152.44 102.412 152.107 102.412C151.768 102.412 151.483 102.339 151.251 102.193C151.019 102.044 150.844 101.849 150.724 101.607C150.604 101.362 150.544 101.094 150.544 100.802ZM151.341 100.38V100.802C151.341 101.044 151.398 101.262 151.513 101.455C151.627 101.645 151.825 101.74 152.107 101.74C152.38 101.74 152.573 101.645 152.685 101.455C152.799 101.262 152.857 101.044 152.857 100.802V100.38C152.857 100.138 152.802 99.922 152.693 99.7319C152.583 99.5392 152.388 99.4429 152.107 99.4429C151.833 99.4429 151.637 99.5392 151.517 99.7319C151.4 99.922 151.341 100.138 151.341 100.38ZM146.56 96.2241V95.8022C146.56 95.5106 146.62 95.2437 146.739 95.0015C146.862 94.7567 147.039 94.5614 147.271 94.4155C147.505 94.2671 147.789 94.1929 148.122 94.1929C148.461 94.1929 148.745 94.2671 148.974 94.4155C149.203 94.5614 149.376 94.7567 149.493 95.0015C149.61 95.2437 149.669 95.5106 149.669 95.8022V96.2241C149.669 96.5158 149.609 96.784 149.489 97.0288C149.372 97.271 149.198 97.4663 148.966 97.6147C148.737 97.7606 148.456 97.8335 148.122 97.8335C147.784 97.8335 147.499 97.7606 147.267 97.6147C147.035 97.4663 146.859 97.271 146.739 97.0288C146.62 96.784 146.56 96.5158 146.56 96.2241ZM147.357 95.8022V96.2241C147.357 96.4663 147.414 96.6838 147.528 96.8765C147.643 97.0666 147.841 97.1616 148.122 97.1616C148.396 97.1616 148.588 97.0666 148.7 96.8765C148.815 96.6838 148.872 96.4663 148.872 96.2241V95.8022C148.872 95.5601 148.818 95.3439 148.708 95.1538C148.599 94.9611 148.403 94.8647 148.122 94.8647C147.849 94.8647 147.652 94.9611 147.532 95.1538C147.415 95.3439 147.357 95.5601 147.357 95.8022ZM146.857 102.302L152.357 94.3022H153.247L147.747 102.302H146.857Z" fill="#5C5C5C"/>
<path d="M16.1134 102.302V101.599L18.754 98.7085C19.0639 98.37 19.3192 98.0757 19.5197 97.8257C19.7202 97.5731 19.8686 97.3361 19.965 97.1147C20.0639 96.8908 20.1134 96.6564 20.1134 96.4116C20.1134 96.1304 20.0457 95.8869 19.9103 95.6812C19.7775 95.4754 19.5952 95.3166 19.3634 95.2046C19.1317 95.0926 18.8712 95.0366 18.5822 95.0366C18.2749 95.0366 18.0067 95.1004 17.7775 95.228C17.5509 95.353 17.3751 95.5288 17.2501 95.7554C17.1277 95.9819 17.0665 96.2476 17.0665 96.5522H16.1447C16.1447 96.0835 16.2527 95.672 16.4689 95.3179C16.685 94.9637 16.9793 94.6877 17.3517 94.4897C17.7267 94.2918 18.1473 94.1929 18.6134 94.1929C19.0822 94.1929 19.4975 94.2918 19.8595 94.4897C20.2215 94.6877 20.5054 94.9546 20.7111 95.2905C20.9168 95.6265 21.0197 96.0002 21.0197 96.4116C21.0197 96.7059 20.9663 96.9937 20.8595 97.2749C20.7554 97.5535 20.5731 97.8647 20.3126 98.2085C20.0548 98.5496 19.6968 98.9663 19.2384 99.4585L17.4415 101.38V101.443H21.1603V102.302H16.1134ZM25.2736 102.412C24.8152 102.412 24.4025 102.32 24.0353 102.138C23.6681 101.956 23.3738 101.706 23.1525 101.388C22.9311 101.07 22.81 100.708 22.7892 100.302H23.7267C23.7632 100.664 23.9272 100.964 24.2189 101.201C24.5132 101.435 24.8647 101.552 25.2736 101.552C25.6017 101.552 25.8934 101.475 26.1486 101.322C26.4064 101.168 26.6082 100.957 26.754 100.689C26.9025 100.418 26.9767 100.112 26.9767 99.771C26.9767 99.422 26.8999 99.1108 26.7462 98.8374C26.5952 98.5614 26.3869 98.3439 26.1212 98.1851C25.8556 98.0262 25.5522 97.9455 25.2111 97.9429C24.9663 97.9403 24.715 97.978 24.4572 98.0562C24.1994 98.1317 23.9871 98.2293 23.8205 98.3491L22.9142 98.2397L23.3986 94.3022H27.5548V95.1616H24.2111L23.9298 97.521H23.9767C24.1408 97.3908 24.3465 97.2827 24.5939 97.1968C24.8413 97.1108 25.0991 97.0679 25.3673 97.0679C25.8569 97.0679 26.2931 97.1851 26.6759 97.4194C27.0613 97.6512 27.3634 97.9689 27.5822 98.3726C27.8035 98.7762 27.9142 99.2371 27.9142 99.7554C27.9142 100.266 27.7996 100.722 27.5705 101.123C27.3439 101.521 27.0314 101.836 26.633 102.068C26.2345 102.297 25.7814 102.412 25.2736 102.412ZM33.5441 100.802V100.38C33.5441 100.089 33.604 99.8218 33.7238 99.5796C33.8462 99.3348 34.0233 99.1395 34.255 98.9937C34.4894 98.8452 34.7733 98.771 35.1066 98.771C35.4451 98.771 35.729 98.8452 35.9582 98.9937C36.1873 99.1395 36.3605 99.3348 36.4777 99.5796C36.5949 99.8218 36.6535 100.089 36.6535 100.38V100.802C36.6535 101.094 36.5936 101.362 36.4738 101.607C36.3566 101.849 36.1821 102.044 35.9503 102.193C35.7212 102.339 35.4399 102.412 35.1066 102.412C34.768 102.412 34.4829 102.339 34.2511 102.193C34.0193 102.044 33.8436 101.849 33.7238 101.607C33.604 101.362 33.5441 101.094 33.5441 100.802ZM34.341 100.38V100.802C34.341 101.044 34.3983 101.262 34.5128 101.455C34.6274 101.645 34.8253 101.74 35.1066 101.74C35.38 101.74 35.5727 101.645 35.6847 101.455C35.7993 101.262 35.8566 101.044 35.8566 100.802V100.38C35.8566 100.138 35.8019 99.922 35.6925 99.7319C35.5832 99.5392 35.3878 99.4429 35.1066 99.4429C34.8332 99.4429 34.6365 99.5392 34.5167 99.7319C34.3996 99.922 34.341 100.138 34.341 100.38ZM29.5597 96.2241V95.8022C29.5597 95.5106 29.6196 95.2437 29.7394 95.0015C29.8618 94.7567 30.0389 94.5614 30.2707 94.4155C30.505 94.2671 30.7889 94.1929 31.1222 94.1929C31.4608 94.1929 31.7446 94.2671 31.9738 94.4155C32.2029 94.5614 32.3761 94.7567 32.4933 95.0015C32.6105 95.2437 32.6691 95.5106 32.6691 95.8022V96.2241C32.6691 96.5158 32.6092 96.784 32.4894 97.0288C32.3722 97.271 32.1977 97.4663 31.966 97.6147C31.7368 97.7606 31.4555 97.8335 31.1222 97.8335C30.7837 97.8335 30.4985 97.7606 30.2667 97.6147C30.035 97.4663 29.8592 97.271 29.7394 97.0288C29.6196 96.784 29.5597 96.5158 29.5597 96.2241ZM30.3566 95.8022V96.2241C30.3566 96.4663 30.4139 96.6838 30.5285 96.8765C30.643 97.0666 30.841 97.1616 31.1222 97.1616C31.3957 97.1616 31.5884 97.0666 31.7003 96.8765C31.8149 96.6838 31.8722 96.4663 31.8722 96.2241V95.8022C31.8722 95.5601 31.8175 95.3439 31.7082 95.1538C31.5988 94.9611 31.4035 94.8647 31.1222 94.8647C30.8488 94.8647 30.6522 94.9611 30.5324 95.1538C30.4152 95.3439 30.3566 95.5601 30.3566 95.8022ZM29.8566 102.302L35.3566 94.3022H36.2472L30.7472 102.302H29.8566Z" fill="#5C5C5C"/>
<path d="M19.1134 13.3022V12.5991L21.7541 9.7085C22.0639 9.36996 22.3192 9.07568 22.5197 8.82568C22.7202 8.57308 22.8686 8.3361 22.965 8.11475C23.0639 7.89079 23.1134 7.65641 23.1134 7.41162C23.1134 7.13037 23.0457 6.88688 22.9103 6.68115C22.7775 6.47542 22.5952 6.31657 22.3634 6.20459C22.1317 6.09261 21.8712 6.03662 21.5822 6.03662C21.2749 6.03662 21.0067 6.10042 20.7775 6.22803C20.5509 6.35303 20.3751 6.52881 20.2501 6.75537C20.1277 6.98193 20.0666 7.24756 20.0666 7.55225H19.1447C19.1447 7.0835 19.2527 6.67204 19.4689 6.31787C19.685 5.9637 19.9793 5.68766 20.3517 5.48975C20.7267 5.29183 21.1473 5.19287 21.6134 5.19287C22.0822 5.19287 22.4975 5.29183 22.8595 5.48975C23.2215 5.68766 23.5054 5.95459 23.7111 6.29053C23.9168 6.62647 24.0197 7.00016 24.0197 7.41162C24.0197 7.70589 23.9663 7.99365 23.8595 8.2749C23.7554 8.55355 23.5731 8.86475 23.3126 9.2085C23.0548 9.54964 22.6968 9.96631 22.2384 10.4585L20.4416 12.3804V12.4429H24.1603V13.3022H19.1134ZM28.2736 13.4116C27.8153 13.4116 27.4025 13.3205 27.0353 13.1382C26.6681 12.9559 26.3738 12.7059 26.1525 12.3882C25.9311 12.0705 25.81 11.7085 25.7892 11.3022H26.7267C26.7632 11.6642 26.9272 11.9637 27.2189 12.2007C27.5132 12.4351 27.8647 12.5522 28.2736 12.5522C28.6017 12.5522 28.8934 12.4754 29.1486 12.3218C29.4064 12.1681 29.6082 11.9572 29.7541 11.689C29.9025 11.4181 29.9767 11.1121 29.9767 10.771C29.9767 10.422 29.8999 10.1108 29.7462 9.8374C29.5952 9.56136 29.3869 9.34391 29.1212 9.18506C28.8556 9.02621 28.5522 8.94548 28.2111 8.94287C27.9663 8.94027 27.715 8.97803 27.4572 9.05615C27.1994 9.13167 26.9871 9.22933 26.8205 9.34912L25.9142 9.23975L26.3986 5.30225H30.5548V6.16162H27.2111L26.9298 8.521H26.9767C27.1408 8.39079 27.3465 8.28272 27.5939 8.19678C27.8413 8.11084 28.0991 8.06787 28.3673 8.06787C28.8569 8.06787 29.2931 8.18506 29.6759 8.41943C30.0613 8.65121 30.3634 8.96891 30.5822 9.37256C30.8035 9.77621 30.9142 10.2371 30.9142 10.7554C30.9142 11.2658 30.7996 11.7215 30.5705 12.1226C30.3439 12.521 30.0314 12.8361 29.633 13.0679C29.2345 13.297 28.7814 13.4116 28.2736 13.4116ZM36.5441 11.8022V11.3804C36.5441 11.0887 36.604 10.8218 36.7238 10.5796C36.8462 10.3348 37.0233 10.1395 37.255 9.99365C37.4894 9.84522 37.7733 9.771 38.1066 9.771C38.4451 9.771 38.729 9.84522 38.9582 9.99365C39.1873 10.1395 39.3605 10.3348 39.4777 10.5796C39.5949 10.8218 39.6535 11.0887 39.6535 11.3804V11.8022C39.6535 12.0939 39.5936 12.3621 39.4738 12.6069C39.3566 12.8491 39.1821 13.0444 38.9503 13.1929C38.7212 13.3387 38.4399 13.4116 38.1066 13.4116C37.7681 13.4116 37.4829 13.3387 37.2511 13.1929C37.0194 13.0444 36.8436 12.8491 36.7238 12.6069C36.604 12.3621 36.5441 12.0939 36.5441 11.8022ZM37.341 11.3804V11.8022C37.341 12.0444 37.3983 12.2619 37.5128 12.4546C37.6274 12.6447 37.8253 12.7397 38.1066 12.7397C38.38 12.7397 38.5727 12.6447 38.6847 12.4546C38.7993 12.2619 38.8566 12.0444 38.8566 11.8022V11.3804C38.8566 11.1382 38.8019 10.922 38.6925 10.7319C38.5832 10.5392 38.3878 10.4429 38.1066 10.4429C37.8332 10.4429 37.6365 10.5392 37.5167 10.7319C37.3996 10.922 37.341 11.1382 37.341 11.3804ZM32.5597 7.22412V6.80225C32.5597 6.51058 32.6196 6.24365 32.7394 6.00146C32.8618 5.75667 33.0389 5.56136 33.2707 5.41553C33.505 5.26709 33.7889 5.19287 34.1222 5.19287C34.4608 5.19287 34.7446 5.26709 34.9738 5.41553C35.2029 5.56136 35.3761 5.75667 35.4933 6.00146C35.6105 6.24365 35.6691 6.51058 35.6691 6.80225V7.22412C35.6691 7.51579 35.6092 7.78402 35.4894 8.02881C35.3722 8.271 35.1977 8.46631 34.966 8.61475C34.7368 8.76058 34.4556 8.8335 34.1222 8.8335C33.7837 8.8335 33.4985 8.76058 33.2667 8.61475C33.035 8.46631 32.8592 8.271 32.7394 8.02881C32.6196 7.78402 32.5597 7.51579 32.5597 7.22412ZM33.3566 6.80225V7.22412C33.3566 7.46631 33.4139 7.68376 33.5285 7.87647C33.6431 8.06657 33.841 8.16162 34.1222 8.16162C34.3957 8.16162 34.5884 8.06657 34.7003 7.87647C34.8149 7.68376 34.8722 7.46631 34.8722 7.22412V6.80225C34.8722 6.56006 34.8175 6.34391 34.7082 6.15381C34.5988 5.9611 34.4035 5.86475 34.1222 5.86475C33.8488 5.86475 33.6522 5.9611 33.5324 6.15381C33.4152 6.34391 33.3566 6.56006 33.3566 6.80225ZM32.8566 13.3022L38.3566 5.30225H39.2472L33.7472 13.3022H32.8566Z" fill="#5C5C5C"/>
</svg>
