 <svg xmlns="http://www.w3.org/2000/svg" viewBox="0 0 433 107">
      <path
        fill="#ccc"
        d="M433.79 90.692H43.24v.364h390.55zM433.79 73.215H43.24v.364h390.55zM433.79 55.738H43.24v.364h390.55zM433.79 38.262H43.24v.364h390.55zM433.79 20.785H43.24v.364h390.55zM433.79 3.308H43.24v.364h390.55z"
      ></path>
      <path
        fill="#ebebeb"
        d="M433.79 81.954H43.24v.364h390.55zM433.79 64.477H43.24v.364h390.55zM433.79 47H43.24v.364h390.55zM433.79 29.523H43.24v.364h390.55zM433.79 12.046H43.24v.364h390.55z"
      ></path>
      <path fill="#ed695d" d="M153.62 21.149H69.735v69.544h83.885z"></path>
      <path fill="#f5bf42" d="M237.48 56.102h-83.885v34.59h83.885z"></path>
      <path fill="#25de99" d="M321.16 3.672h-83.885v87.02h83.885z"></path>
      <path fill="#51ccf1" d="M405.02 38.626h-83.885v52.067h83.885z"></path>
      <path fill="#333" d="M433.79 90.692H43.24v.364h390.55z"></path>
      <path
        fill="#5c5c5c"
        d="M96.82 106.26v-.831l3.12-3.416c.367-.4.668-.748.905-1.043.237-.299.413-.579.527-.84.116-.265.175-.542.175-.831 0-.333-.08-.62-.24-.864a1.562 1.562 0 00-.646-.563 2.096 2.096 0 00-.924-.198c-.363 0-.68.075-.951.226a1.563 1.563 0 00-.623.623 1.948 1.948 0 00-.217.942h-1.089c0-.554.127-1.04.383-1.459a2.659 2.659 0 011.043-.979c.443-.234.94-.35 1.491-.35.554 0 1.045.116 1.473.35s.763.55 1.006.947c.243.397.365.838.365 1.325 0 .347-.063.687-.189 1.02-.123.329-.339.697-.647 1.103-.304.403-.727.896-1.269 1.477l-2.124 2.272v.074h4.395v1.015zm10.955.129c-.696 0-1.288-.189-1.778-.567-.489-.382-.863-.934-1.122-1.658-.258-.726-.387-1.603-.387-2.631 0-1.022.129-1.894.387-2.618.262-.726.637-1.28 1.127-1.661.492-.385 1.083-.578 1.773-.578.689 0 1.278.193 1.768.578.492.381.868.935 1.126 1.661.262.724.392 1.596.392 2.618 0 1.028-.129 1.905-.387 2.631-.259.724-.633 1.276-1.122 1.658-.489.378-1.082.567-1.777.567zm0-1.015c.689 0 1.224-.333 1.606-.997.382-.665.573-1.613.573-2.844 0-.819-.088-1.516-.264-2.091-.172-.576-.421-1.014-.747-1.316a1.653 1.653 0 00-1.168-.452c-.684 0-1.218.337-1.602 1.01-.385.672-.577 1.621-.577 2.849 0 .819.086 1.514.258 2.087.172.572.42 1.008.743 1.306.327.299.719.448 1.178.448zm8.235 1.015c-.609 0-1.152-.104-1.629-.313a2.801 2.801 0 01-1.131-.873 2.347 2.347 0 01-.453-1.306h1.164c.024.304.129.567.314.789.184.219.426.388.724.508.299.12.63.18.993.18.406 0 .766-.071 1.08-.213.314-.141.56-.338.739-.59.178-.253.268-.545.268-.878 0-.347-.087-.654-.259-.918-.172-.268-.425-.477-.757-.628s-.739-.226-1.219-.226h-.757v-1.016h.757c.376 0 .705-.068.988-.203a1.531 1.531 0 00.914-1.44c0-.32-.071-.599-.212-.836a1.457 1.457 0 00-.6-.554 1.943 1.943 0 00-.905-.198c-.326 0-.634.06-.923.18a1.713 1.713 0 00-.702.512c-.182.222-.28.49-.296.803H113c.019-.495.168-.93.448-1.301.28-.376.647-.668 1.099-.878a3.55 3.55 0 011.5-.314c.585 0 1.087.119 1.505.356.419.234.74.543.965.928s.337.8.337 1.246c0 .533-.14.987-.42 1.362a2.123 2.123 0 01-1.131.78v.074c.597.099 1.063.353 1.399.762.335.406.503.909.503 1.509 0 .514-.14.976-.42 1.385-.277.407-.656.727-1.136.961s-1.026.35-1.639.35zm8.167 0c-.696 0-1.288-.189-1.777-.567-.49-.382-.864-.934-1.122-1.658-.259-.726-.388-1.603-.388-2.631 0-1.022.129-1.894.388-2.618.261-.726.637-1.28 1.126-1.661.493-.385 1.084-.578 1.773-.578s1.279.193 1.768.578c.492.381.868.935 1.126 1.661.262.724.393 1.596.393 2.618 0 1.028-.129 1.905-.388 2.631-.258.724-.632 1.276-1.122 1.658-.489.378-1.082.567-1.777.567zm0-1.015c.689 0 1.225-.333 1.606-.997.382-.665.573-1.613.573-2.844 0-.819-.088-1.516-.263-2.091-.173-.576-.422-1.014-.748-1.316a1.652 1.652 0 00-1.168-.452c-.683 0-1.217.337-1.602 1.01-.385.672-.577 1.621-.577 2.849 0 .819.086 1.514.258 2.087.173.572.421 1.008.744 1.306a1.68 1.68 0 001.177.448zM182.28 106.26v-.831l3.12-3.416c.367-.4.668-.748.905-1.043.237-.299.413-.579.527-.84.116-.265.175-.542.175-.831 0-.333-.08-.62-.24-.864a1.557 1.557 0 00-.646-.563 2.098 2.098 0 00-.924-.198c-.363 0-.68.075-.951.226a1.564 1.564 0 00-.623.623 1.948 1.948 0 00-.217.942h-1.089c0-.554.127-1.04.383-1.459a2.66 2.66 0 011.043-.979c.443-.234.94-.35 1.491-.35.554 0 1.045.116 1.473.35s.763.55 1.006.947.365.838.365 1.325c0 .347-.063.688-.189 1.02-.123.329-.339.697-.647 1.103-.304.403-.727.896-1.269 1.477l-2.124 2.272v.074h4.395v1.015zm10.955.13c-.696 0-1.288-.19-1.778-.568-.489-.382-.863-.934-1.122-1.658-.258-.726-.387-1.603-.387-2.631 0-1.022.129-1.894.387-2.618.262-.726.638-1.28 1.127-1.662.492-.384 1.083-.577 1.773-.577.689 0 1.278.193 1.768.577.492.382.868.936 1.126 1.662.262.724.393 1.596.393 2.618 0 1.028-.13 1.905-.388 2.631-.259.724-.633 1.276-1.122 1.658-.489.378-1.082.568-1.777.568zm0-1.016c.689 0 1.224-.332 1.606-.997s.573-1.613.573-2.844c0-.819-.088-1.516-.264-2.091-.172-.576-.421-1.014-.747-1.316a1.653 1.653 0 00-1.168-.452c-.684 0-1.218.337-1.602 1.01-.385.672-.577 1.621-.577 2.849 0 .819.086 1.514.258 2.087.172.572.42 1.008.743 1.306.327.299.719.448 1.178.448zm8.235 1.016c-.609 0-1.152-.105-1.629-.314a2.801 2.801 0 01-1.131-.873 2.347 2.347 0 01-.453-1.306h1.164c.024.304.129.567.314.789.184.219.426.388.724.508.299.12.63.18.993.18.406 0 .766-.071 1.08-.212.314-.142.56-.339.739-.591.178-.253.268-.545.268-.877a1.65 1.65 0 00-.259-.919c-.172-.268-.425-.477-.757-.628s-.739-.226-1.219-.226h-.757v-1.016h.757c.376 0 .705-.068.988-.203.286-.135.509-.326.67-.572.163-.247.244-.536.244-.868 0-.32-.071-.599-.212-.836a1.458 1.458 0 00-.6-.554 1.945 1.945 0 00-.905-.198c-.326 0-.634.06-.923.18a1.71 1.71 0 00-.702.512c-.182.222-.28.49-.296.803h-1.108c.019-.495.168-.93.448-1.302.28-.375.647-.667 1.099-.877a3.55 3.55 0 011.5-.314c.585 0 1.087.119 1.505.356.419.234.74.543.965.928.225.385.337.8.337 1.246 0 .533-.14.987-.42 1.362a2.123 2.123 0 01-1.131.78v.074c.597.099 1.063.353 1.399.762.335.406.503.909.503 1.51 0 .513-.14.975-.42 1.384-.277.407-.656.727-1.136.961s-1.026.351-1.639.351zm8.407-9.584v9.454h-1.145v-8.254h-.055l-2.309 1.533v-1.164l2.364-1.57zM264.49 106.26v-.831l3.121-3.416c.366-.4.668-.748.905-1.043.237-.299.412-.579.526-.84.117-.265.175-.542.175-.831 0-.333-.08-.62-.24-.864a1.557 1.557 0 00-.646-.563 2.097 2.097 0 00-.923-.198c-.363 0-.68.075-.951.226a1.551 1.551 0 00-.623.623 1.948 1.948 0 00-.217.942h-1.09c0-.554.128-1.04.383-1.459a2.662 2.662 0 011.044-.979c.443-.234.94-.35 1.491-.35.554 0 1.045.116 1.472.35.428.234.764.55 1.007.947s.364.838.364 1.325c0 .347-.063.688-.189 1.02-.123.329-.338.697-.646 1.103-.305.403-.728.896-1.27 1.477l-2.123 2.272v.074h4.395v1.015zm10.955.13c-.695 0-1.288-.19-1.777-.568-.49-.382-.864-.934-1.122-1.658-.259-.726-.388-1.603-.388-2.631 0-1.022.129-1.894.388-2.618.262-.726.637-1.28 1.126-1.662.493-.384 1.084-.577 1.773-.577s1.279.193 1.768.577c.493.382.868.936 1.127 1.662.261.724.392 1.596.392 2.618 0 1.028-.129 1.905-.388 2.631-.258.724-.632 1.276-1.122 1.658-.489.378-1.081.568-1.777.568zm0-1.016c.689 0 1.225-.332 1.607-.997.381-.665.572-1.613.572-2.844 0-.819-.088-1.516-.263-2.091-.172-.576-.422-1.014-.748-1.316a1.65 1.65 0 00-1.168-.452c-.683 0-1.217.337-1.602 1.01-.385.672-.577 1.621-.577 2.849 0 .819.086 1.514.259 2.087.172.572.42 1.008.743 1.306a1.68 1.68 0 001.177.448zm8.236 1.016c-.61 0-1.153-.105-1.63-.314a2.801 2.801 0 01-1.131-.873 2.339 2.339 0 01-.452-1.306h1.163c.025.304.129.567.314.789.185.219.426.388.725.508.298.12.629.18.992.18.407 0 .767-.071 1.081-.212.314-.142.56-.339.738-.591.179-.253.268-.545.268-.877a1.65 1.65 0 00-.258-.919 1.715 1.715 0 00-.758-.628c-.332-.151-.738-.226-1.218-.226h-.757v-1.016h.757c.375 0 .704-.068.988-.203.286-.135.509-.326.669-.572.163-.247.245-.536.245-.868 0-.32-.071-.599-.213-.836a1.446 1.446 0 00-.6-.554 1.942 1.942 0 00-.905-.198c-.326 0-.634.06-.923.18-.286.117-.52.287-.702.512-.181.222-.28.49-.295.803h-1.108c.018-.495.168-.93.448-1.302.28-.375.646-.667 1.098-.877.456-.209.956-.314 1.501-.314.585 0 1.086.119 1.505.356.418.234.74.543.965.928.224.385.337.8.337 1.246 0 .533-.14.987-.42 1.362a2.121 2.121 0 01-1.132.78v.074c.598.099 1.064.353 1.399.762.336.406.503.909.503 1.51 0 .513-.14.975-.42 1.384-.277.407-.655.727-1.135.961s-1.027.351-1.639.351zm5.083-.13v-.831l3.12-3.416c.367-.4.668-.748.905-1.043a3.85 3.85 0 00.526-.84c.117-.265.176-.542.176-.831 0-.333-.08-.62-.24-.864a1.563 1.563 0 00-.646-.563 2.098 2.098 0 00-.924-.198c-.363 0-.68.075-.951.226a1.557 1.557 0 00-.623.623 1.948 1.948 0 00-.217.942h-1.089c0-.554.127-1.04.383-1.459a2.66 2.66 0 011.043-.979c.443-.234.94-.35 1.491-.35.554 0 1.045.116 1.473.35s.763.55 1.006.947.365.838.365 1.325c0 .347-.063.688-.189 1.02-.123.329-.339.697-.647 1.103-.304.403-.728.896-1.269 1.477l-2.124 2.272v.074h4.395v1.015zM349.99 106.26v-.831l3.121-3.416c.366-.4.668-.748.905-1.043.237-.299.412-.579.526-.84.117-.265.175-.542.175-.831 0-.333-.08-.62-.24-.864a1.557 1.557 0 00-.646-.563 2.097 2.097 0 00-.923-.198c-.364 0-.681.075-.951.226a1.56 1.56 0 00-.624.623 1.96 1.96 0 00-.217.942h-1.089c0-.554.128-1.04.383-1.459a2.666 2.666 0 011.043-.979 3.15 3.15 0 011.492-.35c.554 0 1.044.116 1.472.35s.763.55 1.007.947c.243.397.364.838.364 1.325 0 .347-.063.688-.189 1.02-.123.329-.339.697-.646 1.103-.305.403-.728.896-1.27 1.477l-2.123 2.272v.074h4.395v1.015zm10.955.13c-.696 0-1.288-.19-1.777-.568-.49-.382-.864-.934-1.122-1.658-.259-.726-.388-1.603-.388-2.631 0-1.022.129-1.894.388-2.618.261-.726.637-1.28 1.126-1.662.493-.384 1.084-.577 1.773-.577s1.279.193 1.768.577c.492.382.868.936 1.126 1.662.262.724.393 1.596.393 2.618 0 1.028-.129 1.905-.388 2.631-.258.724-.632 1.276-1.122 1.658-.489.378-1.082.568-1.777.568zm0-1.016c.689 0 1.225-.332 1.606-.997.382-.665.573-1.613.573-2.844 0-.819-.088-1.516-.263-2.091-.173-.576-.422-1.014-.748-1.316a1.652 1.652 0 00-1.168-.452c-.683 0-1.217.337-1.602 1.01-.385.672-.577 1.621-.577 2.849 0 .819.086 1.514.258 2.087.173.572.421 1.008.744 1.306a1.68 1.68 0 001.177.448zm8.236 1.016c-.61 0-1.153-.105-1.63-.314a2.801 2.801 0 01-1.131-.873 2.339 2.339 0 01-.452-1.306h1.163c.025.304.129.567.314.789.185.219.426.388.725.508.298.12.629.18.992.18.406 0 .767-.071 1.081-.212a1.78 1.78 0 00.738-.591c.179-.253.268-.545.268-.877 0-.348-.086-.654-.259-.919a1.706 1.706 0 00-.757-.628c-.332-.151-.738-.226-1.218-.226h-.758v-1.016h.758c.375 0 .704-.068.987-.203a1.58 1.58 0 00.67-.572c.163-.247.245-.536.245-.868 0-.32-.071-.599-.213-.836a1.446 1.446 0 00-.6-.554 1.942 1.942 0 00-.905-.198c-.326 0-.634.06-.923.18-.286.117-.52.287-.702.512-.181.222-.28.49-.295.803h-1.108c.018-.495.168-.93.448-1.302.28-.375.646-.667 1.098-.877.456-.209.956-.314 1.501-.314.584 0 1.086.119 1.505.356.418.234.74.543.964.928.225.385.337.8.337 1.246 0 .533-.14.987-.42 1.362a2.123 2.123 0 01-1.131.78v.074c.597.099 1.064.353 1.399.762.336.406.503.909.503 1.51 0 .513-.14.975-.42 1.384a2.85 2.85 0 01-1.135.961c-.481.234-1.027.351-1.639.351zm8.277 0c-.609 0-1.153-.105-1.63-.314a2.801 2.801 0 01-1.131-.873 2.347 2.347 0 01-.452-1.306h1.163c.025.304.13.567.314.789.185.219.427.388.725.508.299.12.629.18.993.18.406 0 .766-.071 1.08-.212.314-.142.56-.339.738-.591.179-.253.268-.545.268-.877a1.65 1.65 0 00-.258-.919 1.717 1.717 0 00-.757-.628c-.333-.151-.739-.226-1.219-.226h-.757v-1.016h.757c.375 0 .705-.068.988-.203.286-.135.509-.326.669-.572.163-.247.245-.536.245-.868 0-.32-.071-.599-.213-.836a1.446 1.446 0 00-.6-.554 1.94 1.94 0 00-.904-.198c-.327 0-.634.06-.924.18-.286.117-.52.287-.701.512a1.33 1.33 0 00-.296.803h-1.108c.019-.495.168-.93.448-1.302.28-.375.646-.667 1.099-.877.455-.209.955-.314 1.5-.314.585 0 1.086.119 1.505.356.419.234.74.543.965.928.224.385.337.8.337 1.246 0 .533-.14.987-.42 1.362a2.123 2.123 0 01-1.131.78v.074c.597.099 1.063.353 1.398.762.336.406.504.909.504 1.51 0 .513-.14.975-.42 1.384-.277.407-.656.727-1.136.961s-1.026.351-1.639.351zM12.009 83.45c-.542 0-1.03-.108-1.463-.323a2.717 2.717 0 01-1.044-.887 2.414 2.414 0 01-.43-1.283h1.109c.043.428.237.782.582 1.062.347.277.763.415 1.246.415.388 0 .733-.09 1.034-.272.305-.182.543-.43.716-.748.175-.32.263-.682.263-1.085 0-.412-.091-.78-.273-1.103a2 2 0 00-.738-.771 2.088 2.088 0 00-1.076-.286 2.955 2.955 0 00-.89.134c-.305.089-.556.204-.753.346l-1.071-.13.572-4.653h4.912v1.016h-3.952l-.332 2.788h.055c.194-.154.437-.281.73-.383.292-.102.597-.152.914-.152.578 0 1.094.138 1.546.415.456.274.813.65 1.071 1.127.262.477.393 1.021.393 1.634 0 .603-.136 1.142-.406 1.616a2.97 2.97 0 01-1.108 1.117c-.471.27-1.007.406-1.607.406zm8.038 0c-.695 0-1.288-.19-1.777-.568-.49-.381-.863-.934-1.122-1.657-.258-.726-.388-1.604-.388-2.632 0-1.021.13-1.894.388-2.617.262-.726.637-1.28 1.127-1.662.492-.385 1.083-.577 1.772-.577s1.28.192 1.768.577c.493.382.868.936 1.127 1.662.262.723.392 1.596.392 2.617 0 1.028-.129 1.905-.387 2.632-.259.723-.633 1.276-1.122 1.657-.49.379-1.082.568-1.778.568zm0-1.016c.69 0 1.225-.332 1.607-.997.382-.665.572-1.612.572-2.844 0-.818-.087-1.515-.263-2.09-.172-.576-.421-1.015-.748-1.316a1.651 1.651 0 00-1.168-.453c-.683 0-1.217.337-1.602 1.011-.384.671-.577 1.62-.577 2.848 0 .82.087 1.515.259 2.087.172.572.42 1.008.743 1.306.326.3.719.448 1.177.448zM6.336 38.912v9.454H5.191v-8.254h-.055l-2.309 1.533v-1.163l2.364-1.57zm5.674 9.584c-.542 0-1.03-.108-1.464-.323-.434-.216-.781-.511-1.043-.887s-.405-.803-.43-1.283h1.109c.043.428.237.782.581 1.062.348.277.763.415 1.247.415.387 0 .732-.09 1.034-.272.304-.182.543-.431.715-.748a2.22 2.22 0 00.263-1.085c0-.412-.09-.78-.272-1.103a1.999 1.999 0 00-.739-.771 2.086 2.086 0 00-1.075-.286 2.954 2.954 0 00-.891.133c-.305.09-.556.205-.753.347l-1.07-.13.572-4.653h4.912v1.016h-3.952l-.332 2.788h.055c.194-.154.437-.282.73-.383.292-.102.596-.152.913-.152.579 0 1.095.138 1.547.415.455.274.812.65 1.07 1.126.263.477.393 1.022.393 1.635 0 .603-.135 1.141-.406 1.615-.268.471-.637.844-1.108 1.118-.47.27-1.006.406-1.606.406zm8.038 0c-.695 0-1.288-.19-1.777-.568-.49-.382-.864-.934-1.122-1.657-.259-.727-.388-1.604-.388-2.632 0-1.021.13-1.894.388-2.617.262-.727.637-1.28 1.126-1.662.493-.385 1.084-.577 1.773-.577.69 0 1.279.192 1.768.577.493.381.868.935 1.127 1.662.261.723.392 1.596.392 2.617 0 1.028-.13 1.905-.388 2.632-.258.723-.632 1.275-1.122 1.657-.489.379-1.081.568-1.777.568zm0-1.016c.69 0 1.225-.332 1.607-.997s.572-1.613.572-2.844c0-.818-.088-1.515-.263-2.091-.172-.575-.422-1.014-.748-1.316a1.65 1.65 0 00-1.168-.452c-.683 0-1.217.337-1.602 1.01-.385.672-.577 1.621-.577 2.85 0 .818.086 1.514.259 2.086.172.572.42 1.008.743 1.306.326.299.719.448 1.177.448zM1.184 13.413v-.831l3.12-3.416c.367-.4.668-.748.905-1.043.237-.299.413-.58.527-.84.117-.265.175-.542.175-.832 0-.332-.08-.62-.24-.863-.157-.243-.372-.43-.646-.563s-.582-.199-.923-.199c-.364 0-.68.076-.951.227a1.557 1.557 0 00-.624.623 1.952 1.952 0 00-.217.942H1.22c0-.554.129-1.04.384-1.46a2.662 2.662 0 011.043-.978c.444-.234.94-.35 1.491-.35.554 0 1.045.116 1.473.35s.763.55 1.007.946c.243.397.364.84.364 1.325 0 .348-.063.688-.189 1.02-.123.33-.339.698-.646 1.104a19.72 19.72 0 01-1.27 1.477l-2.123 2.271v.074h4.394v1.016H1.184zm10.826.13c-.542 0-1.03-.108-1.463-.324a2.717 2.717 0 01-1.044-.886 2.414 2.414 0 01-.43-1.284h1.109c.043.428.237.782.582 1.062.347.277.763.416 1.246.416.388 0 .733-.091 1.034-.273.305-.181.543-.43.716-.748.175-.32.263-.681.263-1.084 0-.413-.091-.78-.273-1.104-.178-.326-.424-.583-.738-.77s-.673-.284-1.076-.287a2.954 2.954 0 00-.89.134c-.305.09-.556.205-.753.346l-1.071-.13.572-4.653h4.912v1.016h-3.952l-.332 2.788h.055c.194-.153.437-.281.73-.383.292-.101.597-.152.914-.152.578 0 1.094.138 1.546.415.456.274.813.65 1.071 1.127.262.477.393 1.022.393 1.634 0 .603-.136 1.142-.406 1.616a2.97 2.97 0 01-1.108 1.117c-.471.27-1.007.406-1.607.406zm8.038 0c-.695 0-1.288-.19-1.777-.569-.49-.381-.863-.934-1.122-1.657-.258-.726-.388-1.603-.388-2.631 0-1.022.13-1.895.388-2.618.262-.726.637-1.28 1.127-1.662.492-.384 1.083-.577 1.772-.577s1.28.193 1.769.577c.492.382.867.936 1.126 1.662.262.723.392 1.596.392 2.618 0 1.028-.129 1.905-.387 2.631-.259.723-.633 1.276-1.122 1.657-.49.379-1.082.568-1.778.568zm0-1.016c.69 0 1.225-.333 1.607-.997.382-.665.572-1.613.572-2.844 0-.819-.087-1.516-.263-2.092-.172-.575-.421-1.014-.748-1.315a1.65 1.65 0 00-1.168-.453c-.683 0-1.217.337-1.601 1.011-.385.671-.577 1.62-.577 2.849 0 .818.086 1.514.258 2.086.172.573.42 1.008.743 1.307.327.298.719.448 1.177.448z"
      ></path>
    </svg>