<svg width="470" height="220" viewBox="0 0 470 220" fill="none" xmlns="http://www.w3.org/2000/svg">
<path d="M470 200.373H43.6677V201.181H470V200.373Z" fill="#CCCCCC"/>
<path d="M470 161.583H43.6677V162.391H470V161.583Z" fill="#CCCCCC"/>
<path d="M470 122.794H43.6677V123.602H470V122.794Z" fill="#CCCCCC"/>
<path d="M470 84.0039H43.6677V84.812H470V84.0039Z" fill="#CCCCCC"/>
<path d="M470 45.2142H43.6677V46.0224H470V45.2142Z" fill="#CCCCCC"/>
<path d="M470 6.42456H43.6677V7.23268H470V6.42456Z" fill="#CCCCCC"/>
<path d="M470 180.978H43.6677V181.786H470V180.978Z" fill="#EBEBEB"/>
<path d="M470 142.188H43.6677V142.996H470V142.188Z" fill="#EBEBEB"/>
<path d="M470 103.399H43.6677V104.207H470V103.399Z" fill="#EBEBEB"/>
<path d="M470 64.6091H43.6677V65.4172H470V64.6091Z" fill="#EBEBEB"/>
<path d="M470 25.8194H43.6677V26.6275H470V25.8194Z" fill="#EBEBEB"/>
<path d="M470 200.373H43.6677V201.181H470V200.373Z" fill="#5C5C5C"/>
<path d="M93.9969 216.116H95.2526L96.3052 217.501L96.5822 217.87L98.1518 219.956H96.8961L95.862 218.572L95.6035 218.221L93.9969 216.116ZM98.5396 214.343C98.5396 215.34 98.3595 216.202 97.9994 216.928C97.6393 217.654 97.1454 218.215 96.5175 218.608C95.8897 219.002 95.1726 219.199 94.3663 219.199C93.5599 219.199 92.8428 219.002 92.215 218.608C91.5871 218.215 91.0932 217.654 90.7331 216.928C90.373 216.202 90.193 215.34 90.193 214.343C90.193 213.346 90.373 212.484 90.7331 211.758C91.0932 211.031 91.5871 210.471 92.215 210.077C92.8428 209.683 93.5599 209.486 94.3663 209.486C95.1726 209.486 95.8897 209.683 96.5175 210.077C97.1454 210.471 97.6393 211.031 97.9994 211.758C98.3595 212.484 98.5396 213.346 98.5396 214.343ZM97.4316 214.343C97.4316 213.524 97.2947 212.833 97.0207 212.27C96.7499 211.707 96.3821 211.281 95.9174 210.991C95.4558 210.702 94.9387 210.557 94.3663 210.557C93.7938 210.557 93.2752 210.702 92.8105 210.991C92.3489 211.281 91.9811 211.707 91.7072 212.27C91.4363 212.833 91.3009 213.524 91.3009 214.343C91.3009 215.162 91.4363 215.852 91.7072 216.416C91.9811 216.979 92.3489 217.405 92.8105 217.694C93.2752 217.984 93.7938 218.128 94.3663 218.128C94.9387 218.128 95.4558 217.984 95.9174 217.694C96.3821 217.405 96.7499 216.979 97.0207 216.416C97.2947 215.852 97.4316 215.162 97.4316 214.343ZM103.622 209.616V219.07H102.477V210.816H102.422L100.114 212.349V211.185L102.477 209.616H103.622Z" fill="#5C5C5C"/>
<path d="M199.379 216.116H200.634L201.687 217.501L201.964 217.87L203.533 219.956H202.278L201.244 218.572L200.985 218.221L199.379 216.116ZM203.921 214.343C203.921 215.34 203.741 216.202 203.381 216.928C203.021 217.654 202.527 218.215 201.899 218.608C201.271 219.002 200.554 219.199 199.748 219.199C198.941 219.199 198.224 219.002 197.597 218.608C196.969 218.215 196.475 217.654 196.115 216.928C195.755 216.202 195.575 215.34 195.575 214.343C195.575 213.346 195.755 212.484 196.115 211.758C196.475 211.031 196.969 210.471 197.597 210.077C198.224 209.683 198.941 209.486 199.748 209.486C200.554 209.486 201.271 209.683 201.899 210.077C202.527 210.471 203.021 211.031 203.381 211.758C203.741 212.484 203.921 213.346 203.921 214.343ZM202.813 214.343C202.813 213.524 202.676 212.833 202.402 212.27C202.131 211.707 201.764 211.281 201.299 210.991C200.837 210.702 200.32 210.557 199.748 210.557C199.175 210.557 198.657 210.702 198.192 210.991C197.73 211.281 197.363 211.707 197.089 212.27C196.818 212.833 196.682 213.524 196.682 214.343C196.682 215.162 196.818 215.852 197.089 216.416C197.363 216.979 197.73 217.405 198.192 217.694C198.657 217.984 199.175 218.128 199.748 218.128C200.32 218.128 200.837 217.984 201.299 217.694C201.764 217.405 202.131 216.979 202.402 216.416C202.676 215.852 202.813 215.162 202.813 214.343ZM205.68 219.07V218.239L208.801 214.823C209.167 214.423 209.469 214.075 209.706 213.78C209.943 213.481 210.118 213.201 210.232 212.939C210.349 212.675 210.407 212.398 210.407 212.108C210.407 211.776 210.327 211.488 210.167 211.245C210.01 211.002 209.795 210.814 209.521 210.682C209.247 210.55 208.939 210.483 208.598 210.483C208.234 210.483 207.917 210.559 207.647 210.71C207.379 210.857 207.171 211.065 207.023 211.333C206.879 211.601 206.806 211.915 206.806 212.275H205.717C205.717 211.721 205.845 211.234 206.1 210.816C206.356 210.397 206.703 210.071 207.143 209.837C207.587 209.603 208.084 209.486 208.635 209.486C209.189 209.486 209.679 209.603 210.107 209.837C210.535 210.071 210.87 210.387 211.114 210.784C211.357 211.181 211.478 211.622 211.478 212.108C211.478 212.456 211.415 212.796 211.289 213.129C211.166 213.458 210.95 213.826 210.643 214.232C210.338 214.635 209.915 215.128 209.373 215.709L207.25 217.981V218.055H211.644V219.07H205.68Z" fill="#5C5C5C"/>
<path d="M305.471 216.116H306.727L307.78 217.501L308.057 217.87L309.626 219.956H308.37L307.336 218.572L307.078 218.221L305.471 216.116ZM310.014 214.343C310.014 215.34 309.834 216.202 309.474 216.928C309.114 217.654 308.62 218.215 307.992 218.608C307.364 219.002 306.647 219.199 305.841 219.199C305.034 219.199 304.317 219.002 303.689 218.608C303.061 218.215 302.568 217.654 302.207 216.928C301.847 216.202 301.667 215.34 301.667 214.343C301.667 213.346 301.847 212.484 302.207 211.758C302.568 211.031 303.061 210.471 303.689 210.077C304.317 209.683 305.034 209.486 305.841 209.486C306.647 209.486 307.364 209.683 307.992 210.077C308.62 210.471 309.114 211.031 309.474 211.758C309.834 212.484 310.014 213.346 310.014 214.343ZM308.906 214.343C308.906 213.524 308.769 212.833 308.495 212.27C308.224 211.707 307.856 211.281 307.392 210.991C306.93 210.702 306.413 210.557 305.841 210.557C305.268 210.557 304.75 210.702 304.285 210.991C303.823 211.281 303.455 211.707 303.182 212.27C302.911 212.833 302.775 213.524 302.775 214.343C302.775 215.162 302.911 215.852 303.182 216.416C303.455 216.979 303.823 217.405 304.285 217.694C304.75 217.984 305.268 218.128 305.841 218.128C306.413 218.128 306.93 217.984 307.392 217.694C307.856 217.405 308.224 216.979 308.495 216.416C308.769 215.852 308.906 215.162 308.906 214.343ZM314.967 219.199C314.358 219.199 313.815 219.095 313.338 218.885C312.864 218.676 312.487 218.385 312.207 218.013C311.93 217.637 311.779 217.202 311.754 216.706H312.918C312.942 217.011 313.047 217.274 313.232 217.496C313.416 217.714 313.658 217.884 313.956 218.004C314.255 218.124 314.586 218.184 314.949 218.184C315.355 218.184 315.715 218.113 316.029 217.971C316.343 217.83 316.589 217.633 316.768 217.38C316.946 217.128 317.036 216.836 317.036 216.503C317.036 216.156 316.949 215.849 316.777 215.585C316.605 215.317 316.352 215.108 316.02 214.957C315.688 214.806 315.281 214.731 314.801 214.731H314.044V213.715H314.801C315.177 213.715 315.506 213.647 315.789 213.512C316.075 213.376 316.298 213.186 316.459 212.939C316.622 212.693 316.703 212.404 316.703 212.072C316.703 211.751 316.632 211.473 316.491 211.236C316.349 210.999 316.149 210.814 315.891 210.682C315.635 210.55 315.334 210.483 314.986 210.483C314.66 210.483 314.352 210.543 314.063 210.664C313.776 210.78 313.542 210.951 313.361 211.176C313.179 211.398 313.081 211.665 313.065 211.979H311.957C311.976 211.484 312.125 211.05 312.405 210.677C312.685 210.302 313.052 210.01 313.504 209.8C313.959 209.591 314.46 209.486 315.004 209.486C315.589 209.486 316.091 209.605 316.509 209.842C316.928 210.076 317.249 210.385 317.474 210.77C317.699 211.154 317.811 211.57 317.811 212.016C317.811 212.549 317.671 213.003 317.391 213.378C317.114 213.753 316.737 214.014 316.26 214.158V214.232C316.857 214.331 317.323 214.584 317.659 214.994C317.994 215.4 318.162 215.903 318.162 216.503C318.162 217.017 318.022 217.479 317.742 217.888C317.465 218.295 317.086 218.615 316.606 218.849C316.126 219.082 315.58 219.199 314.967 219.199Z" fill="#5C5C5C"/>
<path d="M411.735 216.116H412.991L414.044 217.501L414.321 217.87L415.89 219.956H414.635L413.601 218.572L413.342 218.221L411.735 216.116ZM416.278 214.343C416.278 215.34 416.098 216.202 415.738 216.928C415.378 217.654 414.884 218.215 414.256 218.608C413.628 219.002 412.911 219.199 412.105 219.199C411.298 219.199 410.581 219.002 409.953 218.608C409.326 218.215 408.832 217.654 408.472 216.928C408.112 216.202 407.931 215.34 407.931 214.343C407.931 213.346 408.112 212.484 408.472 211.758C408.832 211.031 409.326 210.471 409.953 210.077C410.581 209.683 411.298 209.486 412.105 209.486C412.911 209.486 413.628 209.683 414.256 210.077C414.884 210.471 415.378 211.031 415.738 211.758C416.098 212.484 416.278 213.346 416.278 214.343ZM415.17 214.343C415.17 213.524 415.033 212.833 414.759 212.27C414.488 211.707 414.121 211.281 413.656 210.991C413.194 210.702 412.677 210.557 412.105 210.557C411.532 210.557 411.014 210.702 410.549 210.991C410.087 211.281 409.72 211.707 409.446 212.27C409.175 212.833 409.039 213.524 409.039 214.343C409.039 215.162 409.175 215.852 409.446 216.416C409.72 216.979 410.087 217.405 410.549 217.694C411.014 217.984 411.532 218.128 412.105 218.128C412.677 218.128 413.194 217.984 413.656 217.694C414.121 217.405 414.488 216.979 414.759 216.416C415.033 215.852 415.17 215.162 415.17 214.343ZM417.815 217.131V216.189L421.97 209.616H422.653V211.074H422.192L419.053 216.042V216.116H424.648V217.131H417.815ZM422.266 219.07V216.845V216.406V209.616H423.355V219.07H422.266Z" fill="#5C5C5C"/>
<path d="M24.6663 207.078C23.9707 207.078 23.3783 206.888 22.8889 206.51C22.3996 206.128 22.0256 205.576 21.7671 204.852C21.5086 204.126 21.3793 203.249 21.3793 202.221C21.3793 201.199 21.5086 200.327 21.7671 199.604C22.0287 198.877 22.4042 198.323 22.8935 197.942C23.386 197.557 23.9769 197.365 24.6663 197.365C25.3557 197.365 25.945 197.557 26.4344 197.942C26.9268 198.323 27.3023 198.877 27.5608 199.604C27.8224 200.327 27.9532 201.199 27.9532 202.221C27.9532 203.249 27.8239 204.126 27.5654 204.852C27.3069 205.576 26.933 206.128 26.4436 206.51C25.9543 206.888 25.3618 207.078 24.6663 207.078ZM24.6663 206.062C25.3557 206.062 25.8912 205.73 26.2728 205.065C26.6544 204.4 26.8453 203.452 26.8453 202.221C26.8453 201.402 26.7575 200.705 26.5821 200.13C26.4098 199.554 26.1605 199.116 25.8342 198.814C25.5111 198.513 25.1218 198.362 24.6663 198.362C23.983 198.362 23.4491 198.699 23.0644 199.373C22.6796 200.044 22.4873 200.993 22.4873 202.221C22.4873 203.04 22.5735 203.735 22.7458 204.308C22.9182 204.88 23.1659 205.316 23.4891 205.614C23.8153 205.913 24.2077 206.062 24.6663 206.062Z" fill="#5C5C5C"/>
<path d="M10.7381 158.704V168.159H9.59324V159.904H9.53784L7.2296 161.437V160.274L9.59324 158.704H10.7381ZM16.541 168.288C15.8455 168.288 15.253 168.099 14.7637 167.72C14.2743 167.338 13.9004 166.786 13.6419 166.063C13.3834 165.336 13.2541 164.459 13.2541 163.431C13.2541 162.41 13.3834 161.537 13.6419 160.814C13.9035 160.088 14.279 159.534 14.7683 159.152C15.2607 158.767 15.8516 158.575 16.541 158.575C17.2304 158.575 17.8198 158.767 18.3091 159.152C18.8016 159.534 19.177 160.088 19.4356 160.814C19.6972 161.537 19.828 162.41 19.828 163.431C19.828 164.459 19.6987 165.336 19.4402 166.063C19.1817 166.786 18.8077 167.338 18.3184 167.72C17.829 168.099 17.2366 168.288 16.541 168.288ZM16.541 167.272C17.2304 167.272 17.7659 166.94 18.1476 166.275C18.5292 165.61 18.72 164.662 18.72 163.431C18.72 162.613 18.6323 161.916 18.4569 161.34C18.2845 160.765 18.0352 160.326 17.709 160.024C17.3859 159.723 16.9965 159.572 16.541 159.572C15.8578 159.572 15.3238 159.909 14.9391 160.583C14.5544 161.254 14.3621 162.203 14.3621 163.431C14.3621 164.25 14.4482 164.946 14.6206 165.518C14.7929 166.091 15.0407 166.526 15.3638 166.825C15.6901 167.123 16.0825 167.272 16.541 167.272ZM24.666 168.288C23.9705 168.288 23.378 168.099 22.8887 167.72C22.3993 167.338 22.0254 166.786 21.7669 166.063C21.5084 165.336 21.3791 164.459 21.3791 163.431C21.3791 162.41 21.5084 161.537 21.7669 160.814C22.0285 160.088 22.404 159.534 22.8933 159.152C23.3857 158.767 23.9766 158.575 24.666 158.575C25.3554 158.575 25.9448 158.767 26.4341 159.152C26.9266 159.534 27.302 160.088 27.5606 160.814C27.8222 161.537 27.953 162.41 27.953 163.431C27.953 164.459 27.8237 165.336 27.5652 166.063C27.3067 166.786 26.9327 167.338 26.4434 167.72C25.954 168.099 25.3616 168.288 24.666 168.288ZM24.666 167.272C25.3554 167.272 25.8909 166.94 26.2726 166.275C26.6542 165.61 26.845 164.662 26.845 163.431C26.845 162.613 26.7573 161.916 26.5819 161.34C26.4095 160.765 26.1602 160.326 25.834 160.024C25.5109 159.723 25.1215 159.572 24.666 159.572C23.9828 159.572 23.4488 159.909 23.0641 160.583C22.6794 161.254 22.4871 162.203 22.4871 163.431C22.4871 164.25 22.5732 164.946 22.7456 165.518C22.9179 166.091 23.1657 166.526 23.4888 166.825C23.8151 167.123 24.2075 167.272 24.666 167.272Z" fill="#5C5C5C"/>
<path d="M5.5862 129.369V128.538L8.70694 125.122C9.07318 124.722 9.37479 124.374 9.61177 124.079C9.84875 123.78 10.0242 123.5 10.1381 123.238C10.255 122.974 10.3135 122.697 10.3135 122.407C10.3135 122.075 10.2335 121.787 10.0734 121.544C9.91646 121.301 9.70102 121.113 9.42711 120.981C9.1532 120.849 8.84544 120.782 8.50382 120.782C8.14066 120.782 7.82366 120.858 7.55282 121.009C7.28507 121.156 7.07733 121.364 6.9296 121.632C6.78495 121.9 6.71263 122.213 6.71263 122.574H5.62314C5.62314 122.02 5.75086 121.533 6.0063 121.115C6.26175 120.696 6.60952 120.37 7.04963 120.136C7.49281 119.902 7.98985 119.785 8.54075 119.785C9.09473 119.785 9.58561 119.902 10.0134 120.136C10.4412 120.37 10.7767 120.685 11.0198 121.082C11.2629 121.479 11.3845 121.921 11.3845 122.407C11.3845 122.755 11.3214 123.095 11.1952 123.428C11.0721 123.757 10.8567 124.125 10.5489 124.531C10.2442 124.934 9.82105 125.427 9.27939 126.008L7.15581 128.28V128.353H11.5507V129.369H5.5862ZM16.5411 129.498C15.8456 129.498 15.2531 129.309 14.7638 128.93C14.2744 128.549 13.9005 127.996 13.642 127.273C13.3834 126.547 13.2542 125.67 13.2542 124.642C13.2542 123.62 13.3834 122.747 13.642 122.024C13.9036 121.298 14.279 120.744 14.7684 120.362C15.2608 119.978 15.8517 119.785 16.5411 119.785C17.2305 119.785 17.8199 119.978 18.3092 120.362C18.8016 120.744 19.1771 121.298 19.4356 122.024C19.6972 122.747 19.828 123.62 19.828 124.642C19.828 125.67 19.6988 126.547 19.4403 127.273C19.1817 127.996 18.8078 128.549 18.3184 128.93C17.8291 129.309 17.2367 129.498 16.5411 129.498ZM16.5411 128.483C17.2305 128.483 17.766 128.15 18.1476 127.485C18.5293 126.821 18.7201 125.873 18.7201 124.642C18.7201 123.823 18.6324 123.126 18.4569 122.55C18.2846 121.975 18.0353 121.536 17.7091 121.235C17.3859 120.933 16.9966 120.782 16.5411 120.782C15.8579 120.782 15.3239 121.119 14.9392 121.793C14.5545 122.464 14.3621 123.414 14.3621 124.642C14.3621 125.46 14.4483 126.156 14.6207 126.728C14.793 127.301 15.0408 127.736 15.3639 128.035C15.6901 128.333 16.0825 128.483 16.5411 128.483ZM24.6661 129.498C23.9706 129.498 23.3781 129.309 22.8888 128.93C22.3994 128.549 22.0255 127.996 21.767 127.273C21.5084 126.547 21.3792 125.67 21.3792 124.642C21.3792 123.62 21.5084 122.747 21.767 122.024C22.0286 121.298 22.404 120.744 22.8934 120.362C23.3858 119.978 23.9767 119.785 24.6661 119.785C25.3555 119.785 25.9449 119.978 26.4342 120.362C26.9266 120.744 27.3021 121.298 27.5606 122.024C27.8222 122.747 27.953 123.62 27.953 124.642C27.953 125.67 27.8238 126.547 27.5653 127.273C27.3067 127.996 26.9328 128.549 26.4434 128.93C25.9541 129.309 25.3617 129.498 24.6661 129.498ZM24.6661 128.483C25.3555 128.483 25.891 128.15 26.2726 127.485C26.6543 126.821 26.8451 125.873 26.8451 124.642C26.8451 123.823 26.7574 123.126 26.5819 122.55C26.4096 121.975 26.1603 121.536 25.8341 121.235C25.5109 120.933 25.1216 120.782 24.6661 120.782C23.9829 120.782 23.4489 121.119 23.0642 121.793C22.6795 122.464 22.4871 123.414 22.4871 124.642C22.4871 125.46 22.5733 126.156 22.7457 126.728C22.918 127.301 23.1658 127.736 23.4889 128.035C23.8151 128.333 24.2075 128.483 24.6661 128.483Z" fill="#5C5C5C"/>
<path d="M8.37456 90.7086C7.76518 90.7086 7.22198 90.604 6.74494 90.3947C6.27098 90.1854 5.89397 89.8946 5.6139 89.5222C5.33691 89.1467 5.18611 88.7112 5.16149 88.2157H6.32484C6.34946 88.5204 6.4541 88.7835 6.63876 89.0051C6.82342 89.2236 7.06502 89.3929 7.36355 89.5129C7.66208 89.633 7.99293 89.693 8.35609 89.693C8.76234 89.693 9.12243 89.6222 9.43635 89.4806C9.75027 89.3391 9.99648 89.1421 10.175 88.8897C10.3535 88.6373 10.4427 88.345 10.4427 88.0126C10.4427 87.6648 10.3566 87.3586 10.1842 87.0939C10.0119 86.8261 9.7595 86.6169 9.42711 86.4661C9.09473 86.3153 8.68848 86.2399 8.20836 86.2399H7.45126V85.2242H8.20836C8.58384 85.2242 8.91315 85.1565 9.19629 85.0211C9.48251 84.8857 9.70564 84.6949 9.86568 84.4487C10.0288 84.2025 10.1104 83.9132 10.1104 83.5808C10.1104 83.2607 10.0396 82.9822 9.89799 82.7452C9.75642 82.5082 9.55638 82.3235 9.29785 82.1912C9.04241 82.0589 8.7408 81.9927 8.39302 81.9927C8.06679 81.9927 7.75903 82.0527 7.46973 82.1727C7.18351 82.2897 6.9496 82.4605 6.76802 82.6852C6.58644 82.9068 6.48796 83.1745 6.47257 83.4884H5.36461C5.38308 82.9929 5.53235 82.559 5.81241 82.1866C6.09248 81.8111 6.45872 81.5187 6.91113 81.3095C7.36663 81.1002 7.86674 80.9955 8.41149 80.9955C8.99624 80.9955 9.4979 81.114 9.91646 81.351C10.335 81.5849 10.6566 81.8942 10.8813 82.2789C11.106 82.6636 11.2183 83.0791 11.2183 83.5254C11.2183 84.0578 11.0783 84.5118 10.7982 84.8872C10.5212 85.2627 10.1442 85.5228 9.66717 85.6674V85.7413C10.2642 85.8398 10.7305 86.0937 11.066 86.503C11.4014 86.9092 11.5692 87.4124 11.5692 88.0126C11.5692 88.5266 11.4291 88.9882 11.1491 89.3975C10.8721 89.8038 10.4935 90.1239 10.0134 90.3578C9.53329 90.5917 8.98701 90.7086 8.37456 90.7086ZM16.5411 90.7086C15.8456 90.7086 15.2531 90.5193 14.7638 90.1408C14.2744 89.7592 13.9005 89.2067 13.642 88.4835C13.3834 87.7571 13.2542 86.88 13.2542 85.8521C13.2542 84.8303 13.3834 83.9578 13.642 83.2345C13.9036 82.5082 14.279 81.9542 14.7684 81.5726C15.2608 81.1879 15.8517 80.9955 16.5411 80.9955C17.2305 80.9955 17.8199 81.1879 18.3092 81.5726C18.8016 81.9542 19.1771 82.5082 19.4356 83.2345C19.6972 83.9578 19.828 84.8303 19.828 85.8521C19.828 86.88 19.6988 87.7571 19.4403 88.4835C19.1817 89.2067 18.8078 89.7592 18.3184 90.1408C17.8291 90.5193 17.2367 90.7086 16.5411 90.7086ZM16.5411 89.693C17.2305 89.693 17.766 89.3606 18.1476 88.6958C18.5293 88.0311 18.7201 87.0831 18.7201 85.8521C18.7201 85.0334 18.6324 84.3363 18.4569 83.7608C18.2846 83.1853 18.0353 82.7467 17.7091 82.4451C17.3859 82.1435 16.9966 81.9927 16.5411 81.9927C15.8579 81.9927 15.3239 82.3297 14.9392 83.0037C14.5545 83.6746 14.3621 84.6241 14.3621 85.8521C14.3621 86.6707 14.4483 87.3663 14.6207 87.9387C14.793 88.5112 15.0408 88.9467 15.3639 89.2452C15.6901 89.5437 16.0825 89.693 16.5411 89.693ZM24.6661 90.7086C23.9706 90.7086 23.3781 90.5193 22.8888 90.1408C22.3994 89.7592 22.0255 89.2067 21.767 88.4835C21.5084 87.7571 21.3792 86.88 21.3792 85.8521C21.3792 84.8303 21.5084 83.9578 21.767 83.2345C22.0286 82.5082 22.404 81.9542 22.8934 81.5726C23.3858 81.1879 23.9767 80.9955 24.6661 80.9955C25.3555 80.9955 25.9449 81.1879 26.4342 81.5726C26.9266 81.9542 27.3021 82.5082 27.5606 83.2345C27.8222 83.9578 27.953 84.8303 27.953 85.8521C27.953 86.88 27.8238 87.7571 27.5653 88.4835C27.3067 89.2067 26.9328 89.7592 26.4434 90.1408C25.9541 90.5193 25.3617 90.7086 24.6661 90.7086ZM24.6661 89.693C25.3555 89.693 25.891 89.3606 26.2726 88.6958C26.6543 88.0311 26.8451 87.0831 26.8451 85.8521C26.8451 85.0334 26.7574 84.3363 26.5819 83.7608C26.4096 83.1853 26.1603 82.7467 25.8341 82.4451C25.5109 82.1435 25.1216 81.9927 24.6661 81.9927C23.9829 81.9927 23.4489 82.3297 23.0642 83.0037C22.6795 83.6746 22.4871 84.6241 22.4871 85.8521C22.4871 86.6707 22.5733 87.3663 22.7457 87.9387C22.918 88.5112 23.1658 88.9467 23.4889 89.2452C23.8151 89.5437 24.2075 89.693 24.6661 89.693Z" fill="#5C5C5C"/>
<path d="M4.89489 49.8508V48.909L9.04972 42.3351H9.73296V43.7939H9.27131L6.1321 48.7613V48.8351H11.7273V49.8508H4.89489ZM9.34517 51.7897V49.5645V49.126V42.3351H10.4347V51.7897H9.34517ZM16.5411 51.9189C15.8456 51.9189 15.2531 51.7297 14.7638 51.3511C14.2744 50.9695 13.9005 50.417 13.642 49.6938C13.3834 48.9675 13.2542 48.0903 13.2542 47.0624C13.2542 46.0406 13.3834 45.1681 13.642 44.4449C13.9036 43.7185 14.279 43.1646 14.7684 42.7829C15.2608 42.3982 15.8517 42.2059 16.5411 42.2059C17.2305 42.2059 17.8199 42.3982 18.3092 42.7829C18.8016 43.1646 19.1771 43.7185 19.4356 44.4449C19.6972 45.1681 19.828 46.0406 19.828 47.0624C19.828 48.0903 19.6988 48.9675 19.4403 49.6938C19.1817 50.417 18.8078 50.9695 18.3184 51.3511C17.8291 51.7297 17.2367 51.9189 16.5411 51.9189ZM16.5411 50.9033C17.2305 50.9033 17.766 50.5709 18.1476 49.9061C18.5293 49.2414 18.7201 48.2935 18.7201 47.0624C18.7201 46.2437 18.6324 45.5467 18.4569 44.9711C18.2846 44.3956 18.0353 43.957 17.7091 43.6554C17.3859 43.3538 16.9966 43.203 16.5411 43.203C15.8579 43.203 15.3239 43.54 14.9392 44.214C14.5545 44.885 14.3621 45.8344 14.3621 47.0624C14.3621 47.8811 14.4483 48.5766 14.6207 49.149C14.793 49.7215 15.0408 50.157 15.3639 50.4555C15.6901 50.754 16.0825 50.9033 16.5411 50.9033ZM24.6661 51.9189C23.9706 51.9189 23.3781 51.7297 22.8888 51.3511C22.3994 50.9695 22.0255 50.417 21.767 49.6938C21.5084 48.9675 21.3792 48.0903 21.3792 47.0624C21.3792 46.0406 21.5084 45.1681 21.767 44.4449C22.0286 43.7185 22.404 43.1646 22.8934 42.7829C23.3858 42.3982 23.9767 42.2059 24.6661 42.2059C25.3555 42.2059 25.9449 42.3982 26.4342 42.7829C26.9266 43.1646 27.3021 43.7185 27.5606 44.4449C27.8222 45.1681 27.953 46.0406 27.953 47.0624C27.953 48.0903 27.8238 48.9675 27.5653 49.6938C27.3067 50.417 26.9328 50.9695 26.4434 51.3511C25.9541 51.7297 25.3617 51.9189 24.6661 51.9189ZM24.6661 50.9033C25.3555 50.9033 25.891 50.5709 26.2726 49.9061C26.6543 49.2414 26.8451 48.2935 26.8451 47.0624C26.8451 46.2437 26.7574 45.5467 26.5819 44.9711C26.4096 44.3956 26.1603 43.957 25.8341 43.6554C25.5109 43.3538 25.1216 43.203 24.6661 43.203C23.9829 43.203 23.4489 43.54 23.0642 44.214C22.6795 44.885 22.4871 45.8344 22.4871 47.0624C22.4871 47.8811 22.5733 48.5766 22.7457 49.149C22.918 49.7215 23.1658 50.157 23.4889 50.4555C23.8151 50.754 24.2075 50.9033 24.6661 50.9033Z" fill="#5C5C5C"/>
<path d="M8.50266 13.1293C7.961 13.1293 7.47319 13.0215 7.03924 12.8061C6.60529 12.5907 6.25752 12.2952 5.99592 11.9197C5.73432 11.5443 5.59121 11.1165 5.56658 10.6364H6.67454C6.71763 11.0642 6.91152 11.4181 7.25622 11.6982C7.60399 11.9751 8.01947 12.1136 8.50266 12.1136C8.89045 12.1136 9.23515 12.0228 9.53676 11.8413C9.84144 11.6597 10.08 11.4104 10.2523 11.0934C10.4277 10.7733 10.5154 10.4117 10.5154 10.0085C10.5154 9.59612 10.4247 9.22834 10.2431 8.90518C10.0646 8.57895 9.81836 8.32197 9.50444 8.13423C9.19052 7.9465 8.83197 7.85109 8.4288 7.84801C8.1395 7.84493 7.84251 7.88956 7.53782 7.98189C7.23313 8.07114 6.9823 8.18655 6.78533 8.32812L5.71431 8.19886L6.28676 3.54545H11.1987V4.56108H7.24698L6.9146 7.34943H6.96999C7.16389 7.19555 7.40702 7.06783 7.6994 6.96626C7.99177 6.8647 8.29646 6.81392 8.61346 6.81392C9.19206 6.81392 9.70756 6.95241 10.16 7.2294C10.6155 7.50331 10.9725 7.87879 11.231 8.35582C11.4926 8.83286 11.6234 9.3776 11.6234 9.99006C11.6234 10.5933 11.488 11.1319 11.2172 11.6058C10.9494 12.0767 10.5801 12.4491 10.1092 12.723C9.63832 12.9938 9.10281 13.1293 8.50266 13.1293ZM16.5411 13.1293C15.8456 13.1293 15.2531 12.94 14.7638 12.5614C14.2744 12.1798 13.9005 11.6274 13.642 10.9041C13.3834 10.1778 13.2542 9.30066 13.2542 8.27273C13.2542 7.25095 13.3834 6.37843 13.642 5.65518C13.9036 4.92886 14.279 4.37488 14.7684 3.99325C15.2608 3.60855 15.8517 3.41619 16.5411 3.41619C17.2305 3.41619 17.8199 3.60855 18.3092 3.99325C18.8016 4.37488 19.1771 4.92886 19.4356 5.65518C19.6972 6.37843 19.828 7.25095 19.828 8.27273C19.828 9.30066 19.6988 10.1778 19.4403 10.9041C19.1817 11.6274 18.8078 12.1798 18.3184 12.5614C17.8291 12.94 17.2367 13.1293 16.5411 13.1293ZM16.5411 12.1136C17.2305 12.1136 17.766 11.7812 18.1476 11.1165C18.5293 10.4517 18.7201 9.50379 18.7201 8.27273C18.7201 7.45407 18.6324 6.75698 18.4569 6.18146C18.2846 5.60594 18.0353 5.16738 17.7091 4.86577C17.3859 4.56416 16.9966 4.41335 16.5411 4.41335C15.8579 4.41335 15.3239 4.75035 14.9392 5.42436C14.5545 6.09529 14.3621 7.04474 14.3621 8.27273C14.3621 9.09138 14.4483 9.78693 14.6207 10.3594C14.793 10.9318 15.0408 11.3673 15.3639 11.6658C15.6901 11.9644 16.0825 12.1136 16.5411 12.1136ZM24.6661 13.1293C23.9706 13.1293 23.3781 12.94 22.8888 12.5614C22.3994 12.1798 22.0255 11.6274 21.767 10.9041C21.5084 10.1778 21.3792 9.30066 21.3792 8.27273C21.3792 7.25095 21.5084 6.37843 21.767 5.65518C22.0286 4.92886 22.404 4.37488 22.8934 3.99325C23.3858 3.60855 23.9767 3.41619 24.6661 3.41619C25.3555 3.41619 25.9449 3.60855 26.4342 3.99325C26.9266 4.37488 27.3021 4.92886 27.5606 5.65518C27.8222 6.37843 27.953 7.25095 27.953 8.27273C27.953 9.30066 27.8238 10.1778 27.5653 10.9041C27.3067 11.6274 26.9328 12.1798 26.4434 12.5614C25.9541 12.94 25.3617 13.1293 24.6661 13.1293ZM24.6661 12.1136C25.3555 12.1136 25.891 11.7812 26.2726 11.1165C26.6543 10.4517 26.8451 9.50379 26.8451 8.27273C26.8451 7.45407 26.7574 6.75698 26.5819 6.18146C26.4096 5.60594 26.1603 5.16738 25.8341 4.86577C25.5109 4.56416 25.1216 4.41335 24.6661 4.41335C23.9829 4.41335 23.4489 4.75035 23.0642 5.42436C22.6795 6.09529 22.4871 7.04474 22.4871 8.27273C22.4871 9.09138 22.5733 9.78693 22.7457 10.3594C22.918 10.9318 23.1658 11.3673 23.4889 11.6658C23.8151 11.9644 24.2075 12.1136 24.6661 12.1136Z" fill="#5C5C5C"/>
<path d="M43.1538 50.6303L95.9233 71.0521L148.693 75.7407L201.462 21L254.232 64.2885L307.001 137.25L359.771 49.7603L412.54 79.5636L465.31 125.618V179.765H43.1538V50.6303Z" fill="#51CCF1" fill-opacity="0.75"/>
<path d="M43.1538 60.0282L95.9233 74.091L148.693 109.988L201.462 133.837L254.232 115.651L307.001 73.6988L359.771 81.0401L412.54 130.943L465.31 138.25V179.791H43.1538V60.0282Z" fill="#25DE99" fill-opacity="0.75"/>
<path d="M43.1538 110.624L95.9233 106.968L148.693 77.2465L201.462 102.865L254.232 93.3135L307.001 120.299L359.771 137.697L412.54 128.552L465.31 144.939V179.791H43.1538V110.624Z" fill="#F5BC43" fill-opacity="0.75"/>
<path d="M43.1538 127.185L95.9233 109.545L148.693 139.828L201.462 128.305L254.232 120.945L307.001 134.434L359.771 161.154L412.54 96.3779L465.31 143.285V184H43.1538V127.185Z" fill="#FA4A5D" fill-opacity="0.75"/>
</svg>
